HIERARCHY
ROOT Hips
{
	OFFSET -0.001795 -0.223333 0.028219
	CHANNELS 6 Xposition Yposition Zposition Zrotation Yrotation Xrotation 
	JOINT LeftUpLeg
	{
		OFFSET 0.069520 -0.091406 -0.006815
		CHANNELS 3 Zrotation Yrotation Xrotation
		JOINT LeftLeg
		{
			OFFSET 0.034277 -0.375199 -0.004496
			CHANNELS 3 Zrotation Yrotation Xrotation
			JOINT LeftFoot
			{
				OFFSET -0.013596 -0.397961 -0.043693
				CHANNELS 3 Zrotation Yrotation Xrotation
				JOINT LeftToe
				{
					OFFSET 0.026358 -0.055791 0.119288
					CHANNELS 3 Zrotation Yrotation Xrotation
					End Site
					{
						OFFSET 0.000000 0.000000 0.000000
					}
				}
			}
		}
	}
	JOINT RightUpLeg
	{
		OFFSET -0.067670 -0.090522 -0.004320
		CHANNELS 3 Zrotation Yrotation Xrotation
		JOINT RightLeg
		{
			OFFSET -0.038290 -0.382569 -0.008850
			CHANNELS 3 Zrotation Yrotation Xrotation
			JOINT RightFoot
			{
				OFFSET 0.015774 -0.398415 -0.042312
				CHANNELS 3 Zrotation Yrotation Xrotation
				JOINT RightToe
				{
					OFFSET -0.025372 -0.048144 0.123348
					CHANNELS 3 Zrotation Yrotation Xrotation
					End Site
					{
						OFFSET 0.000000 0.000000 0.000000
					}
				}
			}
		}
	}
	JOINT Spine
	{
		OFFSET -0.002533 0.108963 -0.026696
		CHANNELS 3 Zrotation Yrotation Xrotation
		JOINT Spine1
		{
			OFFSET 0.005487 0.135180 0.001092
			CHANNELS 3 Zrotation Yrotation Xrotation
			JOINT Spine2
			{
				OFFSET 0.001457 0.052922 0.025425
				CHANNELS 3 Zrotation Yrotation Xrotation
				JOINT Neck
				{
					OFFSET -0.002778 0.213870 -0.042857
					CHANNELS 3 Zrotation Yrotation Xrotation
					JOINT Head
					{
						OFFSET 0.005152 0.064970 0.051349
						CHANNELS 3 Zrotation Yrotation Xrotation
						End Site
						{
							OFFSET 0.000000 0.000000 0.000000
						}
					}
				}
				JOINT LeftShoulder
				{
					OFFSET 0.078845 0.121749 -0.034090
					CHANNELS 3 Zrotation Yrotation Xrotation
					JOINT LeftArm
					{
						OFFSET 0.090977 0.030469 -0.008868
						CHANNELS 3 Zrotation Yrotation Xrotation
						JOINT LeftForeArm
						{
							OFFSET 0.259612 -0.012772 -0.027456
							CHANNELS 3 Zrotation Yrotation Xrotation
							JOINT LeftHand
							{
								OFFSET 0.249234 0.008986 -0.001171
								CHANNELS 3 Zrotation Yrotation Xrotation
								End Site
								{
									OFFSET 0.000000 0.000000 0.000000
								}
							}
						}
					}
				}
				JOINT RightShoulder
				{
					OFFSET -0.081759 0.118833 -0.038615
					CHANNELS 3 Zrotation Yrotation Xrotation
					JOINT RightArm
					{
						OFFSET -0.096012 0.032551 -0.009143
						CHANNELS 3 Zrotation Yrotation Xrotation
						JOINT RightForeArm
						{
							OFFSET -0.253742 -0.013329 -0.021401
							CHANNELS 3 Zrotation Yrotation Xrotation
							JOINT RightHand
							{
								OFFSET -0.255298 0.007772 -0.005559
								CHANNELS 3 Zrotation Yrotation Xrotation
								End Site
								{
									OFFSET 0.000000 0.000000 0.000000
								}
							}
						}
					}
				}
			}
		}
	}
}
MOTION
Frames: 9
Frame Time: 0.050000
0.000000 0.935740 0.000000 0.329499 4.698190 -2.838104 3.835815 -1.461573 -21.046715 -8.100695 1.505532 36.943141 8.514423 18.411571 11.783247 0.000000 0.000000 0.000000 3.943939 -0.273887 1.671719 -1.836085 0.881084 14.105720 1.711795 5.017902 -0.973247 0.000000 0.000000 0.000000 8.002875 -2.179965 18.186091 -8.443653 3.076750 -19.665587 -0.053725 4.507197 20.339286 12.346011 -7.634931 -12.764362 0.000000 0.000000 0.000000 -28.521297 -9.517583 1.213907 -44.570741 1.401879 -6.542603 0.254208 -26.831759 0.847535 0.000000 0.000000 0.000000 32.707985 -2.359264 -1.001485 48.298072 9.548712 -3.770861 -1.879665 28.776110 1.280179 0.000000 0.000000 0.000000 
0.020442 0.931602 0.063482 -0.104458 3.256006 -2.128679 5.638002 -1.200124 -22.826610 -4.527421 0.450528 15.071358 7.206046 17.096054 19.121998 0.000000 0.000000 0.000000 3.866833 -0.752565 5.032479 -3.599852 1.349137 14.263934 2.254243 6.755454 -1.351510 0.000000 0.000000 0.000000 7.561530 -2.229744 19.381973 -7.863746 2.547638 -25.422847 0.908029 7.311473 23.299978 12.435690 -6.624655 -16.240632 0.000000 0.000000 0.000000 -28.882782 -7.586396 -0.755285 -44.681257 5.117867 -7.868771 -1.657157 -27.421552 1.262376 0.000000 0.000000 0.000000 33.135432 -3.331452 -0.662635 48.937225 11.928215 -3.481905 -2.238055 32.201448 1.680430 0.000000 0.000000 0.000000 
0.042387 0.919045 0.129285 -0.571903 -0.391846 -2.958909 5.533812 -1.064294 -24.169080 1.083395 -0.299050 4.085320 2.435690 11.164972 25.139419 0.000000 0.000000 0.000000 2.317462 -1.245719 10.001323 -3.138763 1.355105 14.666265 1.584509 6.063032 -2.872008 0.000000 0.000000 0.000000 7.266039 -2.092990 19.996194 -7.988617 2.515105 -25.481577 0.822313 9.578750 24.889550 11.251076 -5.355206 -17.847063 0.000000 0.000000 0.000000 -27.487927 -6.415867 -1.220983 -45.152070 5.069621 -8.208039 -0.441747 -25.355095 0.915627 0.000000 0.000000 0.000000 31.805821 -0.816376 1.214011 48.647098 16.475166 -1.794015 -3.141856 34.521314 1.564037 0.000000 0.000000 0.000000 
0.066114 0.907949 0.198861 -0.154253 -3.492845 -4.412065 5.750673 -0.779571 -23.226524 0.333403 -0.204792 4.866233 1.917549 10.041999 25.630449 0.000000 0.000000 0.000000 -0.225124 -1.394703 15.572866 -5.225831 2.018645 15.600299 2.945008 9.516597 -2.367084 0.000000 0.000000 0.000000 6.148062 -1.825411 20.949724 -8.810103 2.679485 -25.378372 3.152962 12.467455 26.430159 11.055047 -4.714820 -19.401532 0.000000 0.000000 0.000000 -28.591446 -8.214197 -0.549127 -44.823377 5.582814 -8.296514 0.308347 -23.146150 0.678488 0.000000 0.000000 0.000000 32.362205 -0.957277 1.528108 46.551626 17.971927 -1.566465 -4.140587 36.742224 1.433682 0.000000 0.000000 0.000000 
0.092717 0.897407 0.274370 0.208822 -3.891487 -4.986544 4.309369 -1.085124 -23.909512 -0.755985 -0.209108 14.477737 3.429424 10.997924 19.742677 0.000000 0.000000 0.000000 -2.591951 -1.096983 17.196550 -6.342818 3.017076 21.571177 5.175667 10.937573 2.802381 0.000000 0.000000 0.000000 4.666740 -1.392371 18.868038 -7.401656 2.468879 -21.911655 2.245173 12.989132 25.879541 10.910270 -4.688530 -18.747756 0.000000 0.000000 0.000000 -29.647750 -8.681162 -0.536158 -44.946731 6.060457 -8.335373 3.691857 -22.770501 -0.011451 0.000000 0.000000 0.000000 34.018382 -0.159367 2.320774 45.664319 18.925435 -1.382179 -6.075818 37.401864 0.889004 0.000000 0.000000 0.000000 
0.119210 0.895681 0.353553 1.646691 -3.864304 -5.790696 2.022767 -1.604356 -24.143363 -3.184364 0.519187 24.980922 4.778537 11.875412 11.945934 0.000000 0.000000 0.000000 -5.563154 -0.470329 14.311390 -6.508048 4.804405 34.299619 8.157997 9.450853 13.580390 0.000000 0.000000 0.000000 3.716375 -1.154959 17.816702 -7.701785 2.656537 -19.932149 2.044043 12.773595 24.646501 9.919570 -4.049779 -18.332024 0.000000 0.000000 0.000000 -31.645750 -8.929197 -0.633752 -42.783821 5.954052 -7.622286 3.624166 -21.244998 0.003485 0.000000 0.000000 0.000000 33.096788 -0.458818 1.858104 46.110734 16.771077 -1.920977 -4.821408 37.521525 1.236475 0.000000 0.000000 0.000000 
0.141829 0.900997 0.430742 2.873133 -3.593242 -6.428694 -0.321881 -1.887558 -21.053586 -5.185383 1.388755 29.540465 5.838306 13.137493 7.874753 0.000000 0.000000 0.000000 -6.314602 -0.161470 7.744727 -6.667396 7.341569 49.510664 8.969528 4.410103 24.973749 0.000000 0.000000 0.000000 3.589353 -1.146262 18.189432 -7.902089 2.696108 -20.713104 0.621211 11.830627 24.904093 11.786550 -5.423988 -18.927990 0.000000 0.000000 0.000000 -31.145022 -9.106016 -0.063761 -42.438858 4.890116 -7.366486 3.236027 -21.922360 0.100736 0.000000 0.000000 0.000000 33.531157 -1.768162 0.555715 47.428762 13.787136 -2.944290 -2.968382 36.024217 1.697838 0.000000 0.000000 0.000000 
0.158214 0.915891 0.501774 3.055105 -2.357695 -6.454749 -3.357773 -1.823021 -15.076567 -3.794287 0.672534 27.415568 6.354538 13.991225 6.642208 0.000000 0.000000 0.000000 -4.640929 0.068610 0.135395 -4.673787 7.325963 59.583825 4.601616 -2.306182 25.827278 0.000000 0.000000 0.000000 4.520105 -1.342152 18.527042 -8.481406 2.888386 -20.959164 -1.126645 8.624545 24.469479 11.120692 -5.287961 -19.213146 0.000000 0.000000 0.000000 -30.444028 -9.059325 1.013650 -41.224838 2.917585 -6.807967 3.038111 -23.271559 0.213846 0.000000 0.000000 0.000000 33.937780 -2.348495 -0.907847 47.969243 11.538321 -3.483809 -1.720087 31.786831 1.588112 0.000000 0.000000 0.000000 
0.170234 0.936309 0.568451 2.109596 -1.174829 -7.031919 -4.735707 -0.863972 -6.297540 -1.287441 -0.270972 20.945069 5.268619 12.292371 7.349481 0.000000 0.000000 0.000000 -2.571847 0.559724 -6.870679 -0.932931 4.333477 62.088320 -0.903056 -8.125154 16.784125 0.000000 0.000000 0.000000 5.579437 -1.616415 19.443032 -7.631517 2.601449 -22.811034 -2.071562 5.418008 26.941366 11.062957 -5.785733 -19.309272 0.000000 0.000000 0.000000 -30.116472 -8.613941 1.947325 -40.575347 0.683061 -6.582833 3.044022 -26.408994 0.367105 0.000000 0.000000 0.000000 33.819929 -2.721722 -2.112642 48.592609 9.331434 -4.299346 -1.245678 30.156811 1.514720 0.000000 0.000000 0.000000 
